<?xml version="1.0" encoding="utf-8"?>
<svg version="1.1" xmlns:xlink="http://www.w3.org/1999/xlink" width="15px" height="15px" xmlns="http://www.w3.org/2000/svg">
  <g transform="matrix(1 0 0 1 -26 -67 )">
    <path d="M 14.9314024390244 7.5  C 14.9314024390244 3.39486471036585  11.6087080792683 0.0685975609756097  7.50714557926829 0.0685975609756097  L 7.5 0.0685975609756097  L 7.5 4.07012195121951  L 8.07164634146341 4.07012195121951  L 8.07164634146341 0.686690167682927  C 11.5658346036585 0.983231707317073  14.334746570122 3.92006478658537  14.334746570122 7.49285442073171  C 14.334746570122 11.2621474847561  11.2728658536585 14.3311737804878  7.50357278963415 14.3311737804878  C 3.73427972560976 14.3311737804878  0.668826219512195 11.2657202743902  0.668826219512195 7.49642721036586  C 0.668826219512195 5.60999428353659  1.43697599085366 3.90220083841464  2.67316120426829 2.666015625  L 2.24799923780488 2.24442644817073  C 0.901057545731707 3.5913681402439  0.0685975609756097 5.44921875  0.0685975609756097 7.5  C 0.0685975609756097 11.6051352896341  3.39486471036585 14.9314024390244  7.5 14.9314024390244  C 11.6051352896341 14.9314024390244  14.9314024390244 11.6051352896341  14.9314024390244 7.5  Z " fill-rule="nonzero" fill="#000000" stroke="none" transform="matrix(1 0 0 1 26 67 )" />
  </g>
</svg>