<?xml version="1.0" encoding="utf-8"?>
<svg version="1.1" xmlns:xlink="http://www.w3.org/1999/xlink" width="12px" height="12px" viewBox="15 24.5  12 12" xmlns="http://www.w3.org/2000/svg">
  <path d="M 21 24.5  C 24.36 24.5  27 27.14  27 30.5  C 27 33.86  24.36 36.5  21 36.5  C 17.64 36.5  15 33.86  15 30.5  C 15 27.14  17.64 24.5  21 24.5  Z " fill-rule="nonzero" fill="#ffffff" stroke="none" />
  <path d="M 21 25  C 24.08 25  26.5 27.42  26.5 30.5  C 26.5 33.58  24.08 36  21 36  C 17.92 36  15.5 33.58  15.5 30.5  C 15.5 27.42  17.92 25  21 25  Z " stroke-width="1" stroke="#797979" fill="none" />
  <path d="M 21 33.5  C 19.32 33.5  18 32.18  18 30.5  C 18 28.82  19.32 27.5  21 27.5  C 22.68 27.5  24 28.82  24 30.5  C 24 32.18  22.68 33.5  21 33.5  " fill-rule="nonzero" fill="#797979" stroke="none" />
</svg>