<?xml version="1.0" encoding="utf-8"?>
<svg version="1.1" xmlns:xlink="http://www.w3.org/1999/xlink" width="12px" height="12px" viewBox="15 64.5  12 12" xmlns="http://www.w3.org/2000/svg">
  <path d="M 21 64.5  C 24.36 64.5  27 67.14  27 70.5  C 27 73.86  24.36 76.5  21 76.5  C 17.64 76.5  15 73.86  15 70.5  C 15 67.14  17.64 64.5  21 64.5  Z " fill-rule="nonzero" fill="#f0f0f0" stroke="none" />
  <path d="M 21 65  C 24.08 65  26.5 67.42  26.5 70.5  C 26.5 73.58  24.08 76  21 76  C 17.92 76  15.5 73.58  15.5 70.5  C 15.5 67.42  17.92 65  21 65  Z " stroke-width="1" stroke="#797979" fill="none" />
  <path d="M 21 73.5  C 19.32 73.5  18 72.18  18 70.5  C 18 68.82  19.32 67.5  21 67.5  C 22.68 67.5  24 68.82  24 70.5  C 24 72.18  22.68 73.5  21 73.5  " fill-rule="nonzero" fill="#797979" stroke="none" />
</svg>