<?xml version="1.0" encoding="utf-8"?>
<svg version="1.1" xmlns:xlink="http://www.w3.org/1999/xlink" width="12px" height="12px" viewBox="27 64.5  12 12" xmlns="http://www.w3.org/2000/svg">
  <path d="M 33 64.5  C 36.36 64.5  39 67.14  39 70.5  C 39 73.86  36.36 76.5  33 76.5  C 29.64 76.5  27 73.86  27 70.5  C 27 67.14  29.64 64.5  33 64.5  Z " fill-rule="nonzero" fill="#ffffff" stroke="none" />
  <path d="M 33 65  C 36.08 65  38.5 67.42  38.5 70.5  C 38.5 73.58  36.08 76  33 76  C 29.92 76  27.5 73.58  27.5 70.5  C 27.5 67.42  29.92 65  33 65  Z " stroke-width="1" stroke="#797979" fill="none" />
  <path d="M 33 73.5  C 31.32 73.5  30 72.18  30 70.5  C 30 68.82  31.32 67.5  33 67.5  C 34.68 67.5  36 68.82  36 70.5  C 36 72.18  34.68 73.5  33 73.5  " fill-rule="nonzero" fill="#797979" stroke="none" />
</svg>