<?xml version="1.0" encoding="utf-8"?>
<svg version="1.1" xmlns:xlink="http://www.w3.org/1999/xlink" width="12px" height="12px" viewBox="27 24.5  12 12" xmlns="http://www.w3.org/2000/svg">
  <path d="M 33 24.5  C 36.36 24.5  39 27.14  39 30.5  C 39 33.86  36.36 36.5  33 36.5  C 29.64 36.5  27 33.86  27 30.5  C 27 27.14  29.64 24.5  33 24.5  Z " fill-rule="nonzero" fill="#f0f0f0" stroke="none" />
  <path d="M 33 25  C 36.08 25  38.5 27.42  38.5 30.5  C 38.5 33.58  36.08 36  33 36  C 29.92 36  27.5 33.58  27.5 30.5  C 27.5 27.42  29.92 25  33 25  Z " stroke-width="1" stroke="#797979" fill="none" />
  <path d="M 33 33.5  C 31.32 33.5  30 32.18  30 30.5  C 30 28.82  31.32 27.5  33 27.5  C 34.68 27.5  36 28.82  36 30.5  C 36 32.18  34.68 33.5  33 33.5  " fill-rule="nonzero" fill="#797979" stroke="none" />
</svg>