<?xml version="1.0" encoding="utf-8"?>
<svg version="1.1" xmlns:xlink="http://www.w3.org/1999/xlink" width="12px" height="12px" viewBox="27 44.5  12 12" xmlns="http://www.w3.org/2000/svg">
  <path d="M 33 44.5  C 36.36 44.5  39 47.14  39 50.5  C 39 53.86  36.36 56.5  33 56.5  C 29.64 56.5  27 53.86  27 50.5  C 27 47.14  29.64 44.5  33 44.5  Z " fill-rule="nonzero" fill="#ffffff" stroke="none" />
  <path d="M 33 45  C 36.08 45  38.5 47.42  38.5 50.5  C 38.5 53.58  36.08 56  33 56  C 29.92 56  27.5 53.58  27.5 50.5  C 27.5 47.42  29.92 45  33 45  Z " stroke-width="1" stroke="#797979" fill="none" />
  <path d="M 33 53.5  C 31.32 53.5  30 52.18  30 50.5  C 30 48.82  31.32 47.5  33 47.5  C 34.68 47.5  36 48.82  36 50.5  C 36 52.18  34.68 53.5  33 53.5  " fill-rule="nonzero" fill="#797979" stroke="none" />
</svg>