<?xml version="1.0" encoding="utf-8"?>
<svg version="1.1" xmlns:xlink="http://www.w3.org/1999/xlink" width="12px" height="11px" xmlns="http://www.w3.org/2000/svg">
  <g transform="matrix(1 0 0 1 -535 -16 )">
    <path d="M 11.5972450657895 10.6308079769737  C 12.0289884868421 10.2322162828947  12.0289884868421 9.58768503289474  11.5972450657895 9.19192023026316  L 7.56969572368421 5.5  L 11.5972450657895 1.80807976973684  C 12.0320723684211 1.4094880756579  12.0320723684211 0.767783717105263  11.5972450657895 0.369192023026316  C 11.1624177631579 -0.0293996710526316  10.4623766447368 -0.0293996710526316  10.0275493421053 0.369192023026316  L 6 4.06111225328947  L 1.97245065789474 0.369192023026316  C 1.53762335526316 -0.0293996710526316  0.837582236842105 -0.0293996710526316  0.402754934210526 0.369192023026316  C -0.0320723684210526 0.767783717105263  -0.0320723684210526 1.40948807565789  0.402754934210526 1.80807976973684  L 4.43030427631579 5.5  L 0.402754934210526 9.19192023026316  C -0.0320723684210526 9.59051192434211  -0.0320723684210526 10.2322162828947  0.402754934210526 10.6308079769737  C 0.837582236842105 11.0293996710526  1.53762335526316 11.0293996710526  1.97245065789474 10.6308079769737  L 6 6.93888774671052  L 10.0275493421053 10.6308079769737  C 10.4623766447368 11.0293996710526  11.1624177631579 11.0293996710526  11.5972450657895 10.6308079769737  Z " fill-rule="nonzero" fill="#000000" stroke="none" transform="matrix(1 0 0 1 535 16 )" />
  </g>
</svg>