<?xml version="1.0" encoding="utf-8"?>
<svg version="1.1" xmlns:xlink="http://www.w3.org/1999/xlink" width="30px" height="30px" xmlns="http://www.w3.org/2000/svg">
  <g transform="matrix(1 0 0 1 -140 -138 )">
    <path d="M 155 138  C 163.4 138  170 144.6  170 153  C 170 161.4  163.4 168  155 168  C 146.6 168  140 161.4  140 153  C 140 144.6  146.6 138  155 138  Z " fill-rule="nonzero" fill="#ffffff" stroke="none" />
    <path d="M 155 138.5  C 163.12 138.5  169.5 144.88  169.5 153  C 169.5 161.12  163.12 167.5  155 167.5  C 146.88 167.5  140.5 161.12  140.5 153  C 140.5 144.88  146.88 138.5  155 138.5  Z " stroke-width="1" stroke="#797979" fill="none" />
  </g>
</svg>