<?xml version="1.0" encoding="utf-8"?>
<svg version="1.1" xmlns:xlink="http://www.w3.org/1999/xlink" width="65px" height="69px" xmlns="http://www.w3.org/2000/svg">
  <defs>
    <mask fill="white" id="clip418">
      <path d="M 63.5865928975812 68.0868139873725  C 63.5865928975812 68.0868139873725  70.6954451878542 51.5405536668286  49.9961399897069 24.1030840213696  C 29.2968347915597 -3.33438562408935  0 0.854541039339486  0 0.854541039339486  L 0 68.0868139873725  L 63.5865928975812 68.0868139873725  Z " fill-rule="evenodd" />
    </mask>
  </defs>
  <g transform="matrix(1 0 0 1 -153 -85 )">
    <path d="M 63.5865928975812 68.0868139873725  C 63.5865928975812 68.0868139873725  70.6954451878542 51.5405536668286  49.9961399897069 24.1030840213696  C 29.2968347915597 -3.33438562408935  0 0.854541039339486  0 0.854541039339486  L 0 68.0868139873725  L 63.5865928975812 68.0868139873725  Z " fill-rule="nonzero" fill="#3a9af4" stroke="none" transform="matrix(1 0 0 1 153 85 )" />
    <path d="M 63.5865928975812 68.0868139873725  C 63.5865928975812 68.0868139873725  70.6954451878542 51.5405536668286  49.9961399897069 24.1030840213696  C 29.2968347915597 -3.33438562408935  0 0.854541039339486  0 0.854541039339486  L 0 68.0868139873725  L 63.5865928975812 68.0868139873725  Z " stroke-width="2" stroke="#797979" fill="none" transform="matrix(1 0 0 1 153 85 )" mask="url(#clip418)" />
  </g>
</svg>