<?xml version="1.0" encoding="utf-8"?>
<svg version="1.1" xmlns:xlink="http://www.w3.org/1999/xlink" width="8px" height="10px" xmlns="http://www.w3.org/2000/svg">
  <g transform="matrix(1 0 0 1 -51 -10 )">
    <path d="M 5.33333333333333 0.952380952380952  L 5.33333333333333 0  L 2.66666666666667 0  L 2.66666666666667 0.952380952380952  L 5.33333333333333 0.952380952380952  Z M 3.55555555555556 3.33333333333333  L 3.55555555555556 6.19047619047619  L 4.44444444444444 6.19047619047619  L 4.44444444444444 3.33333333333333  L 3.55555555555556 3.33333333333333  Z M 8 5.71428571428571  C 8 4.70238095238095  7.67111111111111 3.77380952380952  7.12222222222222 3.04047619047619  L 7.75555555555556 2.36190476190476  C 7.56444444444444 2.11666666666667  7.35555555555556 1.89285714285714  7.12666666666667 1.68809523809524  L 6.49333333333333 2.36666666666667  C 5.81111111111111 1.78095238095238  4.94222222222222 1.42857142857143  3.99777777777778 1.42857142857143  C 1.78666666666667 1.42857142857143  0 3.34761904761905  0 5.71428571428571  C 0 8.08095238095238  1.78666666666667 10  3.99777777777778 10  C 6.20888888888889 10  8 8.08095238095238  8 5.71428571428571  Z M 7.11111111111111 5.71428571428571  C 7.11111111111111 7.55476190476191  5.71777777777778 9.04761904761905  4 9.04761904761905  C 2.28222222222222 9.04761904761905  0.888888888888889 7.55476190476191  0.888888888888889 5.71428571428571  C 0.888888888888889 3.87380952380952  2.28222222222222 2.38095238095238  4 2.38095238095238  C 5.71777777777778 2.38095238095238  7.11111111111111 3.87380952380952  7.11111111111111 5.71428571428571  Z " fill-rule="nonzero" fill="#ffffff" stroke="none" transform="matrix(1 0 0 1 51 10 )" />
  </g>
</svg>