<?xml version="1.0" encoding="utf-8"?>
<svg version="1.1" xmlns:xlink="http://www.w3.org/1999/xlink" width="13px" height="13px" xmlns="http://www.w3.org/2000/svg">
  <defs>
    <mask fill="white" id="clip810">
      <path d="M 12.84765625 0.15234375  L 7.76953125 0.15234375  L 9.74920654296875 2.13201904296875  L 7.214111328125 4.66314697265625  L 2.13201904296875 9.74920654296875  L 0.15234375 7.76953125  L 0.15234375 12.84765625  L 5.23046875 12.84765625  L 3.25079345703125 10.8679809570313  L 10.5228271484375 3.59991455078125  L 10.8679809570313 3.25079345703125  L 12.84765625 5.23046875  L 12.84765625 0.15234375  Z " fill-rule="evenodd" />
    </mask>
  </defs>
  <g transform="matrix(1 0 0 1 -139 -5 )">
    <path d="M 12.84765625 0.15234375  L 7.76953125 0.15234375  L 9.74920654296875 2.13201904296875  L 7.214111328125 4.66314697265625  L 2.13201904296875 9.74920654296875  L 0.15234375 7.76953125  L 0.15234375 12.84765625  L 5.23046875 12.84765625  L 3.25079345703125 10.8679809570313  L 10.5228271484375 3.59991455078125  L 10.8679809570313 3.25079345703125  L 12.84765625 5.23046875  L 12.84765625 0.15234375  Z " fill-rule="nonzero" fill="#ffffff" stroke="none" transform="matrix(1 0 0 1 139 5 )" />
    <path d="M 12.84765625 0.15234375  L 7.76953125 0.15234375  L 9.74920654296875 2.13201904296875  L 7.214111328125 4.66314697265625  L 2.13201904296875 9.74920654296875  L 0.15234375 7.76953125  L 0.15234375 12.84765625  L 5.23046875 12.84765625  L 3.25079345703125 10.8679809570313  L 10.5228271484375 3.59991455078125  L 10.8679809570313 3.25079345703125  L 12.84765625 5.23046875  L 12.84765625 0.15234375  Z " stroke-width="2" stroke="#ffffff" fill="none" transform="matrix(1 0 0 1 139 5 )" mask="url(#clip810)" />
  </g>
</svg>