<?xml version="1.0" encoding="utf-8"?>
<svg version="1.1" xmlns:xlink="http://www.w3.org/1999/xlink" width="7px" height="7px" xmlns="http://www.w3.org/2000/svg">
  <defs>
    <mask fill="white" id="clip123">
      <path d="M 6.91796875 0.08203125  L 4.18359375 0.08203125  L 5.24957275390625 1.14801025390625  L 3.884521484375 2.51092529296875  L 1.14801025390625 5.24957275390625  L 0.08203125 4.18359375  L 0.08203125 6.91796875  L 2.81640625 6.91796875  L 1.75042724609375 5.85198974609375  L 5.6661376953125 1.93841552734375  L 5.85198974609375 1.75042724609375  L 6.91796875 2.81640625  L 6.91796875 0.08203125  Z " fill-rule="evenodd" />
    </mask>
  </defs>
  <g transform="matrix(1 0 0 1 -131 -12 )">
    <path d="M 6.91796875 0.08203125  L 4.18359375 0.08203125  L 5.24957275390625 1.14801025390625  L 3.884521484375 2.51092529296875  L 1.14801025390625 5.24957275390625  L 0.08203125 4.18359375  L 0.08203125 6.91796875  L 2.81640625 6.91796875  L 1.75042724609375 5.85198974609375  L 5.6661376953125 1.93841552734375  L 5.85198974609375 1.75042724609375  L 6.91796875 2.81640625  L 6.91796875 0.08203125  Z " fill-rule="nonzero" fill="#ffffff" stroke="none" transform="matrix(1 0 0 1 131 12 )" />
    <path d="M 6.91796875 0.08203125  L 4.18359375 0.08203125  L 5.24957275390625 1.14801025390625  L 3.884521484375 2.51092529296875  L 1.14801025390625 5.24957275390625  L 0.08203125 4.18359375  L 0.08203125 6.91796875  L 2.81640625 6.91796875  L 1.75042724609375 5.85198974609375  L 5.6661376953125 1.93841552734375  L 5.85198974609375 1.75042724609375  L 6.91796875 2.81640625  L 6.91796875 0.08203125  Z " stroke-width="2" stroke="#ffffff" fill="none" transform="matrix(1 0 0 1 131 12 )" mask="url(#clip123)" />
  </g>
</svg>