<?xml version="1.0" encoding="utf-8"?>
<svg version="1.1" xmlns:xlink="http://www.w3.org/1999/xlink" width="18px" height="18px" xmlns="http://www.w3.org/2000/svg">
  <g transform="matrix(1 0 0 1 -34 -13 )">
    <path d="M 17.77734375 0.222656249999999  C 17.92578125 0.371093749999998  18 0.546874999999998  18 0.749999999999999  L 18 17.25  C 18 17.453125  17.92578125 17.62890625  17.77734375 17.77734375  C 17.62890625 17.92578125  17.453125 18  17.25 18  L 0.75 18  C 0.546875 18  0.37109375 17.92578125  0.22265625 17.77734375  C 0.07421875 17.62890625  0 17.453125  0 17.25  L 0 0.749999999999999  C 0 0.546874999999998  0.07421875 0.371093749999998  0.22265625 0.222656249999999  C 0.37109375 0.0742187499999991  0.546875 0  0.75 0  L 17.25 0  C 17.453125 0  17.62890625 0.0742187499999991  17.77734375 0.222656249999999  Z " fill-rule="nonzero" fill="#ffffff" stroke="none" transform="matrix(1 0 0 1 34 13 )" />
  </g>
</svg>