<?xml version="1.0" encoding="utf-8"?>
<svg version="1.1" xmlns:xlink="http://www.w3.org/1999/xlink" width="16px" height="19px" xmlns="http://www.w3.org/2000/svg">
  <g transform="matrix(1 0 0 1 -14 0 )">
    <path d="M 15.8020833333333 0.235026041666666  C 15.9340277777778 0.391710069444442  16 0.577256944444442  16 0.791666666666666  L 16 18.2083333333333  C 16 18.4227430555556  15.9340277777778 18.6082899305556  15.8020833333333 18.7649739583333  C 15.6701388888889 18.9216579861111  15.5138888888889 19  15.3333333333333 19  L 10 19  C 9.81944444444444 19  9.66319444444444 18.9216579861111  9.53125 18.7649739583333  C 9.39930555555556 18.6082899305556  9.33333333333333 18.4227430555556  9.33333333333333 18.2083333333333  L 9.33333333333333 0.791666666666666  C 9.33333333333333 0.577256944444442  9.39930555555556 0.391710069444442  9.53125 0.235026041666666  C 9.66319444444444 0.078342013888888  9.81944444444444 0  10 0  L 15.3333333333333 0  C 15.5138888888889 0  15.6701388888889 0.078342013888888  15.8020833333333 0.235026041666666  Z M 6.46875 0.235026041666666  C 6.60069444444445 0.391710069444442  6.66666666666667 0.577256944444442  6.66666666666667 0.791666666666666  L 6.66666666666667 18.2083333333333  C 6.66666666666667 18.4227430555556  6.60069444444445 18.6082899305556  6.46875 18.7649739583333  C 6.33680555555556 18.9216579861111  6.18055555555556 19  6 19  L 0.666666666666667 19  C 0.486111111111111 19  0.329861111111111 18.9216579861111  0.197916666666667 18.7649739583333  C 0.0659722222222222 18.6082899305556  0 18.4227430555556  0 18.2083333333333  L 0 0.791666666666666  C 0 0.577256944444442  0.0659722222222222 0.391710069444442  0.197916666666667 0.235026041666666  C 0.329861111111111 0.078342013888888  0.486111111111111 0  0.666666666666667 0  L 6 0  C 6.18055555555556 0  6.33680555555556 0.078342013888888  6.46875 0.235026041666666  Z " fill-rule="nonzero" fill="#ffffff" stroke="none" transform="matrix(1 0 0 1 14 0 )" />
  </g>
</svg>