<?xml version="1.0" encoding="utf-8"?>
<svg version="1.1" xmlns:xlink="http://www.w3.org/1999/xlink" width="15px" height="15px" xmlns="http://www.w3.org/2000/svg">
  <g transform="matrix(1 0 0 1 -23 -2 )">
    <path d="M 14.814453125 0.185546874999999  C 14.9381510416667 0.309244791666665  15 0.455729166666665  15 0.624999999999999  L 15 14.375  C 15 14.5442708333333  14.9381510416667 14.6907552083333  14.814453125 14.814453125  C 14.6907552083333 14.9381510416667  14.5442708333333 15  14.375 15  L 0.625 15  C 0.455729166666667 15  0.309244791666667 14.9381510416667  0.185546875 14.814453125  C 0.0618489583333333 14.6907552083333  0 14.5442708333333  0 14.375  L 0 0.624999999999999  C 0 0.455729166666665  0.0618489583333333 0.309244791666665  0.185546875 0.185546874999999  C 0.309244791666667 0.0618489583333326  0.455729166666667 0  0.625 0  L 14.375 0  C 14.5442708333333 0  14.6907552083333 0.0618489583333326  14.814453125 0.185546874999999  Z " fill-rule="nonzero" fill="#ffffff" stroke="none" transform="matrix(1 0 0 1 23 2 )" />
  </g>
</svg>