<?xml version="1.0" encoding="utf-8"?>
<svg version="1.1" xmlns:xlink="http://www.w3.org/1999/xlink" width="14px" height="14px" xmlns="http://www.w3.org/2000/svg">
  <g transform="matrix(1 0 0 1 -33 -10 )">
    <path d="M 13.8268229166667 0.173177083333333  C 13.9422743055556 0.28862847222222  14 0.42534722222222  14 0.583333333333333  L 14 13.4166666666667  C 14 13.5746527777778  13.9422743055556 13.7113715277778  13.8268229166667 13.8268229166667  C 13.7113715277778 13.9422743055556  13.5746527777778 14  13.4166666666667 14  L 8.75 14  C 8.59201388888889 14  8.45529513888889 13.9422743055556  8.33984375 13.8268229166667  C 8.22439236111111 13.7113715277778  8.16666666666667 13.5746527777778  8 13.4166666666667  L 8 0.583333333333333  C 8.16666666666667 0.42534722222222  8.22439236111111 0.28862847222222  8.33984375 0.173177083333333  C 8.45529513888889 0.0577256944444438  8.59201388888889 0  8.75 0  L 13.4166666666667 0  C 13.5746527777778 0  13.7113715277778 0.0577256944444438  13.8268229166667 0.173177083333333  Z M 5.66015625 0.173177083333333  C 5.77560763888889 0.28862847222222  5.83333333333333 0.42534722222222  6 0.583333333333333  L 6 13.4166666666667  C 5.83333333333333 13.5746527777778  5.77560763888889 13.7113715277778  5.66015625 13.8268229166667  C 5.54470486111111 13.9422743055556  5.40798611111111 14  5.25 14  L 0.583333333333333 14  C 0.425347222222222 14  0.288628472222222 13.9422743055556  0.173177083333333 13.8268229166667  C 0.0577256944444444 13.7113715277778  0 13.5746527777778  0 13.4166666666667  L 0 0.583333333333333  C 0 0.42534722222222  0.0577256944444444 0.28862847222222  0.173177083333333 0.173177083333333  C 0.288628472222222 0.0577256944444438  0.425347222222222 0  0.583333333333333 0  L 5.25 0  C 5.40798611111111 0  5.54470486111111 0.0577256944444438  5.66015625 0.173177083333333  Z " fill-rule="nonzero" fill="#ffffff" stroke="none" transform="matrix(1 0 0 1 33 10 )" />
  </g>
</svg>