<?xml version="1.0" encoding="utf-8"?>
<svg version="1.1" xmlns:xlink="http://www.w3.org/1999/xlink" width="9px" height="9px" xmlns="http://www.w3.org/2000/svg">
  <g transform="matrix(1 0 0 1 -58 -14 )">
    <path d="M 8.888671875 0.111328125  C 8.962890625 0.185546874999999  9 0.273437499999999  9 0.375  L 9 8.625  C 9 8.7265625  8.962890625 8.814453125  8.888671875 8.888671875  C 8.814453125 8.962890625  8.7265625 9  8.625 9  L 0.375 9  C 0.2734375 9  0.185546875 8.962890625  0.111328125 8.888671875  C 0.037109375 8.814453125  0 8.7265625  0 8.625  L 0 0.375  C 0 0.273437499999999  0.037109375 0.185546874999999  0.111328125 0.111328125  C 0.185546875 0.0371093749999996  0.2734375 0  0.375 0  L 8.625 0  C 8.7265625 0  8.814453125 0.0371093749999996  8.888671875 0.111328125  Z " fill-rule="nonzero" fill="#ffffff" stroke="none" transform="matrix(1 0 0 1 58 14 )" />
  </g>
</svg>