<?xml version="1.0" encoding="utf-8"?>
<svg version="1.1" xmlns:xlink="http://www.w3.org/1999/xlink" width="10px" height="10px" xmlns="http://www.w3.org/2000/svg">
  <defs>
    <mask fill="white" id="clip659">
      <path d="M 9.8828125 0.1171875  L 5.9765625 0.1171875  L 7.4993896484375 1.6400146484375  L 5.54931640625 3.5870361328125  L 1.6400146484375 7.4993896484375  L 0.1171875 5.9765625  L 0.1171875 9.8828125  L 4.0234375 9.8828125  L 2.5006103515625 8.3599853515625  L 8.094482421875 2.7691650390625  L 8.3599853515625 2.5006103515625  L 9.8828125 4.0234375  L 9.8828125 0.1171875  Z " fill-rule="evenodd" />
    </mask>
  </defs>
  <g transform="matrix(1 0 0 1 -116 -5 )">
    <path d="M 9.8828125 0.1171875  L 5.9765625 0.1171875  L 7.4993896484375 1.6400146484375  L 5.54931640625 3.5870361328125  L 1.6400146484375 7.4993896484375  L 0.1171875 5.9765625  L 0.1171875 9.8828125  L 4.0234375 9.8828125  L 2.5006103515625 8.3599853515625  L 8.094482421875 2.7691650390625  L 8.3599853515625 2.5006103515625  L 9.8828125 4.0234375  L 9.8828125 0.1171875  Z " fill-rule="nonzero" fill="#ffffff" stroke="none" transform="matrix(1 0 0 1 116 5 )" />
    <path d="M 9.8828125 0.1171875  L 5.9765625 0.1171875  L 7.4993896484375 1.6400146484375  L 5.54931640625 3.5870361328125  L 1.6400146484375 7.4993896484375  L 0.1171875 5.9765625  L 0.1171875 9.8828125  L 4.0234375 9.8828125  L 2.5006103515625 8.3599853515625  L 8.094482421875 2.7691650390625  L 8.3599853515625 2.5006103515625  L 9.8828125 4.0234375  L 9.8828125 0.1171875  Z " stroke-width="2" stroke="#ffffff" fill="none" transform="matrix(1 0 0 1 116 5 )" mask="url(#clip659)" />
  </g>
</svg>