<?xml version="1.0" encoding="utf-8"?>
<svg version="1.1" xmlns:xlink="http://www.w3.org/1999/xlink" width="12px" height="12px" viewBox="19 71  12 12" xmlns="http://www.w3.org/2000/svg">
  <path d="M 25 71  C 28.36 71  31 73.64  31 77  C 31 80.36  28.36 83  25 83  C 21.64 83  19 80.36  19 77  C 19 73.64  21.64 71  25 71  Z " fill-rule="nonzero" fill="#ffffff" stroke="none" />
  <path d="M 25 71.5  C 28.08 71.5  30.5 73.92  30.5 77  C 30.5 80.08  28.08 82.5  25 82.5  C 21.92 82.5  19.5 80.08  19.5 77  C 19.5 73.92  21.92 71.5  25 71.5  Z " stroke-width="1" stroke="#797979" fill="none" />
  <path d="M 25 80  C 23.32 80  22 78.68  22 77  C 22 75.32  23.32 74  25 74  C 26.68 74  28 75.32  28 77  C 28 78.68  26.68 80  25 80  " fill-rule="nonzero" fill="#797979" stroke="none" />
</svg>