<?xml version="1.0" encoding="utf-8"?>
<svg version="1.1" xmlns:xlink="http://www.w3.org/1999/xlink" width="20px" height="25px" xmlns="http://www.w3.org/2000/svg">
  <g transform="matrix(1 0 0 1 -16 -9 )">
    <path d="M 19.7526041666667 0.309244791666666  C 19.9175347222222 0.515407986111108  20 0.759548611111108  20 1.04166666666667  L 20 23.9583333333333  C 20 24.2404513888889  19.9175347222222 24.4845920138889  19.7526041666667 24.6907552083333  C 19.5876736111111 24.8969184027778  19.3923611111111 25  19.1666666666667 25  L 12.5 25  C 12.2743055555556 25  12.0789930555556 24.8969184027778  11.9140625 24.6907552083333  C 11.7491319444444 24.4845920138889  11.6666666666667 24.2404513888889  11.6666666666667 23.9583333333333  L 11.6666666666667 1.04166666666667  C 11.6666666666667 0.759548611111108  11.7491319444444 0.515407986111108  11.9140625 0.309244791666666  C 12.0789930555556 0.103081597222221  12.2743055555556 0  12.5 0  L 19.1666666666667 0  C 19.3923611111111 0  19.5876736111111 0.103081597222221  19.7526041666667 0.309244791666666  Z M 8.0859375 0.309244791666666  C 8.25086805555556 0.515407986111108  8.33333333333333 0.759548611111108  8.33333333333333 1.04166666666667  L 8.33333333333333 23.9583333333333  C 8.33333333333333 24.2404513888889  8.25086805555556 24.4845920138889  8.0859375 24.6907552083333  C 7.92100694444445 24.8969184027778  7.72569444444445 25  7.5 25  L 0.833333333333333 25  C 0.607638888888889 25  0.412326388888889 24.8969184027778  0.247395833333333 24.6907552083333  C 0.0824652777777778 24.4845920138889  0 24.2404513888889  0 23.9583333333333  L 0 1.04166666666667  C 0 0.759548611111108  0.0824652777777778 0.515407986111108  0.247395833333333 0.309244791666666  C 0.412326388888889 0.103081597222221  0.607638888888889 0  0.833333333333333 0  L 7.5 0  C 7.72569444444445 0  7.92100694444445 0.103081597222221  8.0859375 0.309244791666666  Z " fill-rule="nonzero" fill="#ffffff" stroke="none" transform="matrix(1 0 0 1 16 9 )" />
  </g>
</svg>